<svg xmlns="http://www.w3.org/2000/svg" width="1920" height="264"><defs><clipPath id="a"><path data-name="Rectangle 265" transform="translate(0 754)" fill="#fff" stroke="#707070" d="M0 0h1920v264H0z"/></clipPath></defs><g data-name="Mask Group 1" transform="translate(0 -754)" clip-path="url(#a)"><g data-name="Group 597" fill="none" stroke-width="10"><path data-name="Path 645" d="M1932 774.773s-201.936 121.109-443.332 121.109-271.012-121.109-522.26-121.109-310.65 121.109-560.738 121.109S-33.944 774.773-33.944 774.773" style="mix-blend-mode:multiply;isolation:isolate" stroke="#f6aa00"/><path data-name="Path 647" d="M2195 854.328s-201.936 121.109-443.332 121.109-271.012-121.109-522.26-121.109-310.65 121.109-560.738 121.109-318.481-121.109-559.614-121.109-404.922 121.109-404.922 121.109" style="mix-blend-mode:multiply;isolation:isolate" stroke="#732f54"/><path data-name="Path 648" d="M2439 826.328s-201.936 121.109-443.332 121.109-271.012-121.109-522.26-121.109-310.65 121.109-560.738 121.109-318.481-121.109-559.614-121.109S-51.866 947.437-51.866 947.437" style="mix-blend-mode:multiply;isolation:isolate" stroke="#d32d3d"/></g></g></svg>